<?xml version="1.0" encoding="UTF-8"?>
<svg width="477px" height="85px" viewBox="0 0 477 85" version="1.1" xmlns="http://www.w3.org/2000/svg" xmlns:xlink="http://www.w3.org/1999/xlink">
    <!-- Generator: Sketch 55.2 (78181) - https://sketchapp.com -->
    <title>yt_vr_full_rgb_black</title>
    <desc>Created with Sketch.</desc>
    <g id="Page-1" stroke="none" stroke-width="1" fill="none" fill-rule="evenodd">
        <g id="yt_vr_full_rgb_black" fill-rule="nonzero">
            <g id="Group">
                <path d="M119.3,13.3 C117.9,8.1 113.8,4 108.6,2.6 C99.1,0.1 61.1,0.1 61.1,0.1 C61.1,0.1 23.1,0.1 13.6,2.6 C8.4,4 4.3,8.1 2.9,13.3 C0.4,22.8 0.4,42.5 0.4,42.5 C0.4,42.5 0.4,62.3 2.9,71.7 C4.3,76.9 8.4,81 13.6,82.4 C23.1,84.9 61.1,84.9 61.1,84.9 C61.1,84.9 99.1,84.9 108.6,82.4 C113.8,81 117.9,76.9 119.3,71.7 C121.80051,62.2 121.80051,42.5 121.80051,42.5 C121.80051,42.5 121.9,22.8 119.3,13.3 Z" id="Path" fill="#FF0000"></path>
                <polygon id="Path" fill="#FFFFFF" points="49 60.8 80.6 42.6 49 24.3"></polygon>
            </g>
            <g id="Group" transform="translate(133.000000, 3.000000)" fill="#282828">
                <path d="M14.3,52.3 L0.7,3.1 L12.6,3.1 L17.4,25.4 C18.5,30.5 19.6,36 20.1,39.5 L20.4,39.5 C20.9,36 22.1,30.5 23.1,25.5 L28.1,3.1 L40,3.1 L26.2,52.3 L26.2,76 L14.4,76 L14.4,52.3 L14.3,52.3 Z" id="Path"></path>
                <path d="M37.6,53.2 L37.6,45.5 C37.6,28.3 42.6,21.7 54.4,21.7 C66.2,21.7 70.7,28.6 70.7,45.5 L70.7,53.2 C70.7,70 66.4,76.8 54.1,76.8 C41.6,76.8 37.6,69.8 37.6,53.2 Z M58.8,57.6 L58.8,41 C58.8,33.7 57.8,30 54.3,30 C50.9,30 49.9,33.7 49.9,41 L49.9,57.6 C49.9,65.2 50.9,68.7 54.3,68.7 C57.7,68.7 58.8,65.2 58.8,57.6 Z" id="Shape"></path>
                <path d="M108.8,22.7 L108.8,76 L99.4,76 L98.4,69.5 L98.1,69.5 C95.4,74.7 91.5,76.9 86.6,76.9 C79.5,76.9 76.3,72.4 76.3,62.6 L76.3,22.8 L88.3,22.8 L88.3,61.9 C88.3,66.6 89.3,68.5 91.7,68.5 C93.8,68.5 95.9,67.1 96.8,65.1 L96.8,22.8 L108.8,22.8 L108.8,22.7 Z" id="Path"></path>
                <polygon id="Path" points="140.8 12.7 128.9 12.7 128.9 76 117.2 76 117.2 12.8 105.3 12.8 105.3 3.2 140.8 3.2 140.8 12.7"></polygon>
                <path d="M169.9,22.7 L169.9,76 L160.5,76 L159.5,69.5 L159.2,69.5 C156.5,74.7 152.6,76.9 147.7,76.9 C140.6,76.9 137.4,72.4 137.4,62.6 L137.4,22.8 L149.4,22.8 L149.4,61.9 C149.4,66.6 150.4,68.5 152.8,68.5 C154.9,68.5 157,67.1 157.9,65.1 L157.9,22.8 L169.9,22.8 L169.9,22.7 Z" id="Path"></path>
                <path d="M210.4,45.2 L210.4,53.6 C210.4,69.5 206.7,76.7 198.6,76.7 C194.2,76.7 190.2,74.5 188.3,70.9 L188,70.9 L186.8,75.9 L176.9,75.9 L176.9,0.4 L188.5,0.4 L188.5,15.7 C188.5,19.7 188.6,23.7 188.2,28.5 L188.5,28.5 C190.5,24.5 194.6,21.7 199.1,21.7 C207.5,21.7 210.4,27.7 210.4,45.2 Z M198.3,46.1 C198.3,33.8 197.3,30.2 193.7,30.2 C191.4,30.2 189.3,32.2 188.4,35.2 L188.4,65.4 C189.4,67.3 191.3,68.2 193.2,68.2 C197,68.2 198.3,64.6 198.3,53 L198.3,46.1 Z" id="Shape"></path>
                <path d="M228.8,53.4 L228.8,56.1 C228.8,65.5 229.3,68.7 233.3,68.7 C237.1,68.7 238,65.7 238.1,59.7 L248.4,60.3 C249.2,71.8 243.2,76.9 233,76.9 C220.7,76.9 217,68.8 217,54.1 L217,44.8 C217,29.3 221.1,21.8 233.3,21.8 C245.6,21.8 248.8,28.2 248.8,44.3 L248.8,53.4 L228.8,53.4 L228.8,53.4 Z M228.8,42.4 L228.8,46.2 L237.6,46.2 L237.6,42.4 C237.6,32.6 236.9,29.8 233.2,29.8 C229.5,29.8 228.8,32.7 228.8,42.4 Z" id="Shape"></path>
                <path d="M261.6,3.1 L274.2,3.1 L278.1,35.9 C279.2,45.3 280.2,53.4 281.4,64.5 L281.9,64.5 C283,53.4 284.1,45.5 285.2,35.9 L289.1,3.1 L301.5,3.1 L289.6,76 L273.8,76 L261.6,3.1 Z" id="Path"></path>
                <path d="M330.9,76 L323.1,44.5 C322.1,44.6 320.9,44.7 319.7,44.7 L318.4,44.7 L318.4,76 L306.8,76 L306.8,3.1 L322,3.1 C336.9,3.1 341.5,9.9 341.5,23 L341.5,24.8 C341.5,32.6 338.5,38.2 333.2,41.4 L335.5,47.9 L343.7,76 L330.9,76 Z M320.4,36.7 C327,36.7 329.3,32.7 329.3,25 L329.3,23.3 C329.3,14.8 327.2,12 320.5,12 L318.3,12 L318.3,36.8 L320.4,36.8 L320.4,36.7 Z" id="Shape"></path>
            </g>
        </g>
    </g>
</svg>